<mxfile host="app.diagrams.net" agent="Mozilla/5.0 (Macintosh; Intel Mac OS X 10_15_7) AppleWebKit/605.1.15 (KHTML, like Gecko) Version/17.2.1 Safari/605.1.15" version="25.0.3">
  <diagram name="Page-1" id="3qWat7TnqTN0R8gUwRB4">
    <mxGraphModel dx="1468" dy="2006" grid="1" gridSize="10" guides="1" tooltips="1" connect="1" arrows="1" fold="1" page="1" pageScale="1" pageWidth="827" pageHeight="1169" math="0" shadow="0">
      <root>
        <mxCell id="0" />
        <mxCell id="1" parent="0" />
        <mxCell id="wr1J9yVkNnbwStFv_y0O-1" value="Actor" style="shape=umlActor;verticalLabelPosition=bottom;verticalAlign=top;html=1;outlineConnect=0;" parent="1" vertex="1">
          <mxGeometry width="80" height="162" as="geometry" />
        </mxCell>
        <mxCell id="wr1J9yVkNnbwStFv_y0O-6" value="&amp;lt;&amp;lt;controller&amp;gt;&amp;gt;&lt;div&gt;Make reservation handler&lt;/div&gt;" style="rounded=0;whiteSpace=wrap;html=1;" parent="1" vertex="1">
          <mxGeometry x="284" y="-80" width="306" height="320" as="geometry" />
        </mxCell>
        <mxCell id="wr1J9yVkNnbwStFv_y0O-10" value="1.MakeReservation" style="text;html=1;align=center;verticalAlign=middle;whiteSpace=wrap;rounded=0;" parent="1" vertex="1">
          <mxGeometry x="80" y="-90" width="140" height="30" as="geometry" />
        </mxCell>
        <mxCell id="wr1J9yVkNnbwStFv_y0O-28" value="user profile" style="rounded=0;whiteSpace=wrap;html=1;" parent="1" vertex="1">
          <mxGeometry x="1040" y="-170" width="310" height="320" as="geometry" />
        </mxCell>
        <mxCell id="wr1J9yVkNnbwStFv_y0O-29" value="Ticket" style="rounded=0;whiteSpace=wrap;html=1;" parent="1" vertex="1">
          <mxGeometry x="1820" y="320" width="190" height="120" as="geometry" />
        </mxCell>
        <mxCell id="wr1J9yVkNnbwStFv_y0O-30" value="Room" style="rounded=0;whiteSpace=wrap;html=1;" parent="1" vertex="1">
          <mxGeometry x="1820" y="140" width="190" height="120" as="geometry" />
        </mxCell>
        <mxCell id="wr1J9yVkNnbwStFv_y0O-31" value="car" style="rounded=0;whiteSpace=wrap;html=1;" parent="1" vertex="1">
          <mxGeometry x="1820" y="500" width="190" height="120" as="geometry" />
        </mxCell>
        <mxCell id="wr1J9yVkNnbwStFv_y0O-33" value="" style="endArrow=none;html=1;rounded=0;exitX=0.5;exitY=0.5;exitDx=0;exitDy=0;exitPerimeter=0;entryX=0;entryY=0.5;entryDx=0;entryDy=0;" parent="1" source="wr1J9yVkNnbwStFv_y0O-1" target="wr1J9yVkNnbwStFv_y0O-6" edge="1">
          <mxGeometry width="50" height="50" relative="1" as="geometry">
            <mxPoint x="480" y="140" as="sourcePoint" />
            <mxPoint x="530" y="90" as="targetPoint" />
          </mxGeometry>
        </mxCell>
        <mxCell id="wr1J9yVkNnbwStFv_y0O-34" value="" style="endArrow=none;html=1;rounded=0;exitX=1;exitY=0.5;exitDx=0;exitDy=0;entryX=0;entryY=0.5;entryDx=0;entryDy=0;" parent="1" source="wr1J9yVkNnbwStFv_y0O-6" target="wr1J9yVkNnbwStFv_y0O-28" edge="1">
          <mxGeometry width="50" height="50" relative="1" as="geometry">
            <mxPoint x="750" y="140" as="sourcePoint" />
            <mxPoint x="800" y="90" as="targetPoint" />
          </mxGeometry>
        </mxCell>
        <mxCell id="wr1J9yVkNnbwStFv_y0O-35" value="" style="endArrow=none;html=1;rounded=0;entryX=0;entryY=0.5;entryDx=0;entryDy=0;" parent="1" target="wr1J9yVkNnbwStFv_y0O-30" edge="1" source="wr1J9yVkNnbwStFv_y0O-38">
          <mxGeometry width="50" height="50" relative="1" as="geometry">
            <mxPoint x="1360" y="349" as="sourcePoint" />
            <mxPoint x="1070" y="359" as="targetPoint" />
          </mxGeometry>
        </mxCell>
        <mxCell id="wr1J9yVkNnbwStFv_y0O-36" value="" style="endArrow=none;html=1;rounded=0;exitX=1;exitY=0.5;exitDx=0;exitDy=0;entryX=0;entryY=0.5;entryDx=0;entryDy=0;" parent="1" target="wr1J9yVkNnbwStFv_y0O-29" edge="1">
          <mxGeometry width="50" height="50" relative="1" as="geometry">
            <mxPoint x="1360" y="349" as="sourcePoint" />
            <mxPoint x="1710" y="120" as="targetPoint" />
            <Array as="points">
              <mxPoint x="1370" y="349" />
            </Array>
          </mxGeometry>
        </mxCell>
        <mxCell id="wr1J9yVkNnbwStFv_y0O-37" value="" style="endArrow=none;html=1;rounded=0;entryX=0;entryY=0.5;entryDx=0;entryDy=0;" parent="1" target="wr1J9yVkNnbwStFv_y0O-31" edge="1">
          <mxGeometry width="50" height="50" relative="1" as="geometry">
            <mxPoint x="1360" y="349" as="sourcePoint" />
            <mxPoint x="1710" y="360" as="targetPoint" />
          </mxGeometry>
        </mxCell>
        <mxCell id="wr1J9yVkNnbwStFv_y0O-38" value="Order" style="rounded=0;whiteSpace=wrap;html=1;" parent="1" vertex="1">
          <mxGeometry x="1050" y="180" width="310" height="320" as="geometry" />
        </mxCell>
        <mxCell id="wr1J9yVkNnbwStFv_y0O-39" value="" style="endArrow=none;html=1;rounded=0;exitX=1;exitY=0.5;exitDx=0;exitDy=0;entryX=0;entryY=0.5;entryDx=0;entryDy=0;" parent="1" source="wr1J9yVkNnbwStFv_y0O-6" target="wr1J9yVkNnbwStFv_y0O-38" edge="1">
          <mxGeometry width="50" height="50" relative="1" as="geometry">
            <mxPoint x="620" y="330" as="sourcePoint" />
            <mxPoint x="670" y="280" as="targetPoint" />
          </mxGeometry>
        </mxCell>
        <mxCell id="X0KTBg5QiYJIBkpDeTiK-1" value="" style="endArrow=classic;html=1;rounded=0;" edge="1" parent="1">
          <mxGeometry width="50" height="50" relative="1" as="geometry">
            <mxPoint x="600" y="370" as="sourcePoint" />
            <mxPoint x="1040" y="380" as="targetPoint" />
          </mxGeometry>
        </mxCell>
        <mxCell id="X0KTBg5QiYJIBkpDeTiK-2" value="2. getcustinfo(cust_id)" style="text;html=1;align=center;verticalAlign=middle;whiteSpace=wrap;rounded=0;" vertex="1" parent="1">
          <mxGeometry x="600" y="-120" width="200" height="30" as="geometry" />
        </mxCell>
        <mxCell id="X0KTBg5QiYJIBkpDeTiK-3" value="" style="endArrow=classic;html=1;rounded=0;" edge="1" parent="1">
          <mxGeometry width="50" height="50" relative="1" as="geometry">
            <mxPoint x="80" y="-50" as="sourcePoint" />
            <mxPoint x="280" y="-50" as="targetPoint" />
          </mxGeometry>
        </mxCell>
        <mxCell id="X0KTBg5QiYJIBkpDeTiK-4" value="" style="endArrow=classic;html=1;rounded=0;" edge="1" parent="1">
          <mxGeometry width="50" height="50" relative="1" as="geometry">
            <mxPoint x="610" y="-80" as="sourcePoint" />
            <mxPoint x="980" y="-80" as="targetPoint" />
          </mxGeometry>
        </mxCell>
        <mxCell id="X0KTBg5QiYJIBkpDeTiK-5" value="4.createorder(order_id,booking_status,products,..etc)" style="text;html=1;align=center;verticalAlign=middle;whiteSpace=wrap;rounded=0;" vertex="1" parent="1">
          <mxGeometry x="750" y="340" width="60" height="30" as="geometry" />
        </mxCell>
        <mxCell id="X0KTBg5QiYJIBkpDeTiK-6" value="" style="endArrow=classic;html=1;rounded=0;" edge="1" parent="1">
          <mxGeometry width="50" height="50" relative="1" as="geometry">
            <mxPoint x="980" y="-50" as="sourcePoint" />
            <mxPoint x="600" y="-50" as="targetPoint" />
          </mxGeometry>
        </mxCell>
        <mxCell id="X0KTBg5QiYJIBkpDeTiK-7" value="3.returnCustInfo" style="text;html=1;align=center;verticalAlign=middle;whiteSpace=wrap;rounded=0;" vertex="1" parent="1">
          <mxGeometry x="710" y="-80" width="60" height="30" as="geometry" />
        </mxCell>
        <mxCell id="X0KTBg5QiYJIBkpDeTiK-10" value="" style="endArrow=classic;html=1;rounded=0;" edge="1" parent="1">
          <mxGeometry width="50" height="50" relative="1" as="geometry">
            <mxPoint x="1370" y="178.33" as="sourcePoint" />
            <mxPoint x="1810" y="178.33" as="targetPoint" />
          </mxGeometry>
        </mxCell>
        <mxCell id="X0KTBg5QiYJIBkpDeTiK-14" value="5.bookingRoom(checkin,checkout,roomtype)" style="text;html=1;align=center;verticalAlign=middle;whiteSpace=wrap;rounded=0;" vertex="1" parent="1">
          <mxGeometry x="1490" y="150" width="60" height="30" as="geometry" />
        </mxCell>
        <mxCell id="X0KTBg5QiYJIBkpDeTiK-15" value="" style="endArrow=classic;html=1;rounded=0;" edge="1" parent="1">
          <mxGeometry width="50" height="50" relative="1" as="geometry">
            <mxPoint x="1370" y="320" as="sourcePoint" />
            <mxPoint x="1810" y="320" as="targetPoint" />
          </mxGeometry>
        </mxCell>
        <mxCell id="X0KTBg5QiYJIBkpDeTiK-16" value="6.bookingTicket((dept,arr,time)" style="text;html=1;align=center;verticalAlign=middle;whiteSpace=wrap;rounded=0;" vertex="1" parent="1">
          <mxGeometry x="1392" y="291" width="240" height="30" as="geometry" />
        </mxCell>
        <mxCell id="X0KTBg5QiYJIBkpDeTiK-17" value="" style="endArrow=classic;html=1;rounded=0;" edge="1" parent="1">
          <mxGeometry width="50" height="50" relative="1" as="geometry">
            <mxPoint x="1800" y="200" as="sourcePoint" />
            <mxPoint x="1370" y="200" as="targetPoint" />
          </mxGeometry>
        </mxCell>
        <mxCell id="X0KTBg5QiYJIBkpDeTiK-18" value="" style="endArrow=classic;html=1;rounded=0;" edge="1" parent="1">
          <mxGeometry width="50" height="50" relative="1" as="geometry">
            <mxPoint x="1370" y="590" as="sourcePoint" />
            <mxPoint x="1810" y="590" as="targetPoint" />
          </mxGeometry>
        </mxCell>
        <mxCell id="X0KTBg5QiYJIBkpDeTiK-19" value="7.bookingCar(cartyoe,date)" style="text;html=1;align=center;verticalAlign=middle;whiteSpace=wrap;rounded=0;" vertex="1" parent="1">
          <mxGeometry x="1420" y="555" width="60" height="30" as="geometry" />
        </mxCell>
        <mxCell id="X0KTBg5QiYJIBkpDeTiK-21" value="" style="endArrow=classic;html=1;rounded=0;" edge="1" parent="1">
          <mxGeometry width="50" height="50" relative="1" as="geometry">
            <mxPoint x="1800" y="340" as="sourcePoint" />
            <mxPoint x="1380" y="340" as="targetPoint" />
          </mxGeometry>
        </mxCell>
        <mxCell id="X0KTBg5QiYJIBkpDeTiK-22" value="" style="endArrow=classic;html=1;rounded=0;" edge="1" parent="1">
          <mxGeometry width="50" height="50" relative="1" as="geometry">
            <mxPoint x="1800" y="640" as="sourcePoint" />
            <mxPoint x="1370" y="640" as="targetPoint" />
          </mxGeometry>
        </mxCell>
        <mxCell id="X0KTBg5QiYJIBkpDeTiK-23" value="8.RoomDetails(R_ID,R_availability,R_price)" style="text;html=1;align=center;verticalAlign=middle;whiteSpace=wrap;rounded=0;" vertex="1" parent="1">
          <mxGeometry x="1490" y="175" width="60" height="30" as="geometry" />
        </mxCell>
        <mxCell id="X0KTBg5QiYJIBkpDeTiK-25" value="9.TicketDetails(T_ID,flight_no,seat_no,price)" style="text;html=1;align=center;verticalAlign=middle;whiteSpace=wrap;rounded=0;" vertex="1" parent="1">
          <mxGeometry x="1520" y="314" width="60" height="30" as="geometry" />
        </mxCell>
        <mxCell id="X0KTBg5QiYJIBkpDeTiK-26" value="10.CarDetails(car_id,car_availablilty,price)" style="text;html=1;align=center;verticalAlign=middle;whiteSpace=wrap;rounded=0;" vertex="1" parent="1">
          <mxGeometry x="1477" y="607" width="60" height="30" as="geometry" />
        </mxCell>
        <mxCell id="X0KTBg5QiYJIBkpDeTiK-27" value="" style="endArrow=classic;html=1;rounded=0;" edge="1" parent="1">
          <mxGeometry width="50" height="50" relative="1" as="geometry">
            <mxPoint x="1030" y="430" as="sourcePoint" />
            <mxPoint x="600" y="430" as="targetPoint" />
          </mxGeometry>
        </mxCell>
        <mxCell id="X0KTBg5QiYJIBkpDeTiK-28" value="11.return order details" style="text;html=1;align=center;verticalAlign=middle;whiteSpace=wrap;rounded=0;" vertex="1" parent="1">
          <mxGeometry x="640" y="390" width="380" height="30" as="geometry" />
        </mxCell>
        <mxCell id="X0KTBg5QiYJIBkpDeTiK-29" value="" style="endArrow=classic;html=1;rounded=0;" edge="1" parent="1">
          <mxGeometry width="50" height="50" relative="1" as="geometry">
            <mxPoint x="250" y="200" as="sourcePoint" />
            <mxPoint x="80" y="200" as="targetPoint" />
          </mxGeometry>
        </mxCell>
        <mxCell id="X0KTBg5QiYJIBkpDeTiK-30" value="12.return order detail" style="text;html=1;align=center;verticalAlign=middle;whiteSpace=wrap;rounded=0;" vertex="1" parent="1">
          <mxGeometry x="70" y="170" width="190" height="30" as="geometry" />
        </mxCell>
      </root>
    </mxGraphModel>
  </diagram>
</mxfile>
